<svg width="30" height="30" viewBox="0 0 30 30" fill="none" xmlns="http://www.w3.org/2000/svg">
<path fill-rule="evenodd" clip-rule="evenodd" d="M14.9393 21.897C17.5929 21.897 19.7185 19.781 19.7185 17.2022C19.7185 15.0594 18.4528 12.6078 17.072 10.6014C16.4155 9.65159 15.7033 8.74185 14.9393 7.87696C14.1753 8.74185 13.4631 9.65159 12.8066 10.6014C11.4258 12.6078 10.1601 15.0594 10.1601 17.2022C10.1601 19.7806 12.2856 21.897 14.9393 21.897ZM14.3976 7.28496C12.9965 8.86056 9.36353 13.321 9.36353 17.2022C9.36353 20.237 11.8599 22.697 14.9393 22.697C18.0187 22.697 20.515 20.237 20.515 17.2022C20.515 13.321 16.882 8.86056 15.4809 7.28496C15.1464 6.90896 14.9393 6.69696 14.9393 6.69696C14.9393 6.69696 14.7322 6.90896 14.3976 7.28496Z" fill="black"/>
<path fill-rule="evenodd" clip-rule="evenodd" d="M25 19.4444V10.5556C25 9.08213 24.4147 7.66905 23.3728 6.62718C22.3309 5.58532 20.9179 5 19.4444 5H10.5556C9.08213 5 7.66905 5.58532 6.62718 6.62718C5.58532 7.66905 5 9.08213 5 10.5556V19.4444C5 20.9179 5.58532 22.3309 6.62718 23.3728C7.66905 24.4147 9.08213 25 10.5556 25H19.4444C20.9179 25 22.3309 24.4147 23.3728 23.3728C24.4147 22.3309 25 20.9179 25 19.4444ZM20.0303 16.9744C20.0303 19.7333 17.751 21.9697 14.9394 21.9697C12.1278 21.9697 9.84848 19.7333 9.84848 16.9744C9.84848 12.6035 14.9394 7.42424 14.9394 7.42424C14.9394 7.42424 20.0303 12.6031 20.0303 16.9744ZM15.902 19.4243H14.098C14.0224 19.4243 13.95 19.3942 13.8966 19.3408C13.8431 19.2874 13.8131 19.215 13.8131 19.1394V18.0475C13.8131 17.9719 13.7831 17.8995 13.7297 17.8461C13.6763 17.7926 13.6038 17.7626 13.5283 17.7626H12.4364C12.3608 17.7626 12.2884 17.7326 12.235 17.6792C12.1815 17.6258 12.1515 17.5533 12.1515 17.4778V15.6737C12.1515 15.5982 12.1815 15.5258 12.235 15.4723C12.2884 15.4189 12.3608 15.3889 12.4364 15.3889H13.5283C13.6038 15.3889 13.6763 15.3589 13.7297 15.3055C13.7831 15.2521 13.8131 15.1796 13.8131 15.1041V14.0121C13.8131 13.9366 13.8431 13.8641 13.8966 13.8107C13.95 13.7573 14.0224 13.7273 14.098 13.7273H15.902C15.9776 13.7273 16.05 13.7573 16.1034 13.8107C16.1569 13.8641 16.1869 13.9366 16.1869 14.0121V15.1041C16.1869 15.1796 16.2169 15.2521 16.2703 15.3055C16.3237 15.3589 16.3962 15.3889 16.4717 15.3889H17.5636C17.6392 15.3889 17.7116 15.4189 17.7651 15.4723C17.8185 15.5258 17.8485 15.5982 17.8485 15.6737V17.4778C17.8485 17.5533 17.8185 17.6258 17.7651 17.6792C17.7116 17.7326 17.6392 17.7626 17.5636 17.7626H16.4717C16.3962 17.7626 16.3237 17.7926 16.2703 17.8461C16.2169 17.8995 16.1869 17.9719 16.1869 18.0475V19.1394C16.1869 19.215 16.1569 19.2874 16.1034 19.3408C16.05 19.3942 15.9776 19.4243 15.902 19.4243Z" fill="black"/>
</svg>
