<svg width="30" height="30" viewBox="0 0 30 30" fill="none" xmlns="http://www.w3.org/2000/svg">
<path fill-rule="evenodd" clip-rule="evenodd" d="M25 19.4444V10.5556C25 9.08213 24.4147 7.66905 23.3728 6.62718C22.3309 5.58532 20.9179 5 19.4444 5H10.5556C9.08213 5 7.66905 5.58532 6.62718 6.62718C5.58532 7.66905 5 9.08213 5 10.5556V19.4444C5 20.9179 5.58532 22.3309 6.62718 23.3728C7.66905 24.4147 9.08213 25 10.5556 25H19.4444C20.9179 25 22.3309 24.4147 23.3728 23.3728C24.4147 22.3309 25 20.9179 25 19.4444ZM12.5001 19.7438H18.1667C18.1667 20.122 18.316 20.4848 18.5817 20.7523C18.8474 21.0198 19.2077 21.1701 19.5834 21.1701C19.9591 21.1701 20.3195 21.0198 20.5851 20.7523C20.8508 20.4848 21.0001 20.122 21.0001 19.7438V9.75964C21.0001 9.38136 20.8508 9.01857 20.5851 8.75109C20.3195 8.4836 19.9591 8.33333 19.5834 8.33333H11.0834C10.7077 8.33333 10.3474 8.4836 10.0817 8.75109C9.816 9.01857 9.66675 9.38136 9.66675 9.75964V19.7438C9.66675 20.122 9.816 20.4848 10.0817 20.7523C10.3474 21.0198 10.7077 21.1701 11.0834 21.1701C11.4591 21.1701 11.8195 21.0198 12.0851 20.7523C12.3508 20.4848 12.5001 20.122 12.5001 19.7438ZM19.3759 16.6823C19.2431 16.816 19.0629 16.8912 18.8751 16.8912C18.6872 16.8912 18.5071 16.816 18.3742 16.6823C18.2414 16.5485 18.1667 16.3671 18.1667 16.178C18.1667 15.9889 18.2414 15.8075 18.3742 15.6737C18.5071 15.54 18.6872 15.4649 18.8751 15.4649C19.0629 15.4649 19.2431 15.54 19.3759 15.6737C19.5088 15.8075 19.5834 15.9889 19.5834 16.178C19.5834 16.3671 19.5088 16.5485 19.3759 16.6823ZM12.2926 16.6823C12.1598 16.816 11.9796 16.8912 11.7917 16.8912C11.6039 16.8912 11.4237 16.816 11.2909 16.6823C11.158 16.5485 11.0834 16.3671 11.0834 16.178C11.0834 15.9889 11.158 15.8075 11.2909 15.6737C11.4237 15.54 11.6039 15.4649 11.7917 15.4649C11.9796 15.4649 12.1598 15.54 12.2926 15.6737C12.4255 15.8075 12.5001 15.9889 12.5001 16.178C12.5001 16.3671 12.4255 16.5485 12.2926 16.6823ZM11.0834 14.0385V9.75964H19.5834V14.0385H11.0834Z" fill="black"/>
</svg>
