<svg width="30" height="30" viewBox="0 0 30 30" fill="none" xmlns="http://www.w3.org/2000/svg">
<path fill-rule="evenodd" clip-rule="evenodd" d="M25 19.4444V10.5556C25 9.08213 24.4147 7.66905 23.3728 6.62718C22.3309 5.58532 20.9179 5 19.4444 5H10.5556C9.08213 5 7.66905 5.58532 6.62718 6.62718C5.58532 7.66905 5 9.08213 5 10.5556V19.4444C5 20.9179 5.58532 22.3309 6.62718 23.3728C7.66905 24.4147 9.08213 25 10.5556 25H19.4444C20.9179 25 22.3309 24.4147 23.3728 23.3728C24.4147 22.3309 25 20.9179 25 19.4444ZM19.5966 20.1125C19.7875 19.8508 19.9906 19.6447 20.1953 19.4376L20.198 19.4348C20.4662 19.1627 20.7372 18.8877 20.9873 18.4784C21.0445 18.3845 21.1025 18.2943 21.1591 18.2063L21.1762 18.1798C21.4005 17.833 21.5987 17.525 21.6356 17.2102C21.6828 16.8088 21.7123 14.3984 21.5825 14.0334C21.4521 13.6689 20.7019 13.4642 20.4427 14.2808C20.3148 14.6837 20.2745 15.2017 20.2381 15.672L20.2375 15.6786C20.1999 16.158 20.1662 16.5869 20.0462 16.7896C19.8086 17.192 19.0437 18.1931 19.0437 18.1931L19.7038 16.9401C19.7038 16.9401 19.8042 16.767 19.7516 16.4374C19.6989 16.1083 19.3005 15.6479 19.1135 16.0138C18.9261 16.3798 18.5995 16.7094 18.5995 16.7094L17.4444 18.1006C17.4444 18.1006 17.0676 18.5891 17.0578 18.8567C17.0543 18.9461 16.9983 19.1447 16.9349 19.3696C16.8633 19.6235 16.7823 19.9109 16.7567 20.1125V20.601H19.5966V20.1125ZM16.9008 22.9165C16.9931 23.0088 17.1182 23.0606 17.2487 23.0606H19.2163C19.3468 23.0606 19.4719 23.0088 19.5642 22.9165C19.6564 22.8243 19.7083 22.6992 19.7083 22.5687V21.5848C19.7083 21.4544 19.6564 21.3293 19.5642 21.237C19.4719 21.1448 19.3468 21.0929 19.2163 21.0929H17.2487C17.1182 21.0929 16.9931 21.1448 16.9008 21.237C16.8086 21.3293 16.7567 21.4544 16.7567 21.5848V22.5687C16.7567 22.6992 16.8086 22.8243 16.9008 22.9165ZM10.4488 20.1125C10.2575 19.8508 10.0538 19.6447 9.8487 19.4376L9.84599 19.4349C9.57681 19.1628 9.30478 18.8877 9.05376 18.4784C9.00137 18.3924 8.94796 18.3095 8.89579 18.2286C8.88526 18.2122 8.87478 18.196 8.86437 18.1798C8.63907 17.833 8.44034 17.525 8.40295 17.2102C8.35573 16.8088 8.50281 14.3984 8.63317 14.0334C8.76353 13.6689 9.51666 13.4642 9.77688 14.2808C9.90488 14.6825 9.94536 15.1985 9.98217 15.6676L9.98251 15.672C10.0199 16.154 10.0538 16.586 10.1744 16.7896C10.4129 17.192 11.1803 18.1931 11.1803 18.1931L10.5182 16.9401C10.5182 16.9401 10.4174 16.767 10.4705 16.4374C10.5236 16.1083 10.9231 15.6479 11.1105 16.0138C11.2984 16.3798 11.6265 16.7094 11.6265 16.7094L12.785 18.1006C12.785 18.1006 13.1628 18.5891 13.1731 18.8567C13.1805 19.047 13.2651 19.7323 13.3133 20.1125V20.601H10.4488V20.1125ZM13.1692 22.9165C13.077 23.0088 12.9518 23.0606 12.8214 23.0606H10.8537C10.7232 23.0606 10.5981 23.0088 10.5059 22.9165C10.4136 22.8243 10.3618 22.6992 10.3618 22.5687V21.5848C10.3618 21.4544 10.4136 21.3293 10.5059 21.237C10.5981 21.1448 10.7232 21.0929 10.8537 21.0929H12.8214C12.9518 21.0929 13.077 21.1448 13.1692 21.237C13.2615 21.3293 13.3133 21.4544 13.3133 21.5848V22.5687C13.3133 22.6992 13.2615 22.8243 13.1692 22.9165ZM13.2056 7.81108C11.8464 7.81108 10.8537 9.28044 10.8537 10.8644C10.8537 14.4008 15.281 16.6656 15.281 16.6656C15.281 16.6656 19.7083 14.2552 19.7083 10.8644C19.7083 9.28044 18.7156 7.81108 17.3564 7.81108C16.4129 7.81108 15.7129 8.47025 15.281 9.4049C14.8486 8.47025 14.1491 7.81108 13.2056 7.81108Z" fill="black"/>
</svg>
