<svg width="30" height="30" viewBox="0 0 30 30" fill="none" xmlns="http://www.w3.org/2000/svg">
<path fill-rule="evenodd" clip-rule="evenodd" d="M25 19.4444V10.5556C25 9.08213 24.4147 7.66905 23.3728 6.62718C22.3309 5.58532 20.9179 5 19.4444 5H10.5556C9.08213 5 7.66905 5.58532 6.62718 6.62718C5.58532 7.66905 5 9.08213 5 10.5556V19.4444C5 20.9179 5.58532 22.3309 6.62718 23.3728C7.66905 24.4147 9.08213 25 10.5556 25H19.4444C20.9179 25 22.3309 24.4147 23.3728 23.3728C24.4147 22.3309 25 20.9179 25 19.4444ZM14.4545 7.02022C14.4545 6.84119 14.502 6.69696 14.8839 6.69696C15.0663 6.69696 15.3131 6.84119 15.3131 7.02022V7.06066C15.4232 7.03967 15.5317 7.02022 15.6429 7.02022C15.9739 7.02022 16.3864 7.22264 16.7986 7.42488C17.21 7.62677 17.6211 7.82849 17.9505 7.82849C18.2797 7.82849 18.6098 7.58582 18.9356 7.34626L18.9394 7.34348V9.60654C18.651 9.81846 18.2385 9.92992 17.9505 9.92992C17.6105 9.92992 17.1954 9.72532 16.7829 9.52198C16.3754 9.32114 15.9705 9.12152 15.6429 9.12152C15.5353 9.12152 15.4258 9.15544 15.3131 9.2024V11.4242H18.9394C19.1965 11.4245 19.443 11.5267 19.6248 11.7085C19.8066 11.8903 19.9088 12.1368 19.9091 12.3939V15.303H20.8788C21.1359 15.3033 21.3824 15.4055 21.5642 15.5873C21.746 15.7691 21.8482 16.0156 21.8485 16.2727V21.7273L17 21.7273V18.3939C17 17.2894 16.1046 16.3939 15 16.3939C13.8954 16.3939 13 17.2894 13 18.3939V21.7273H8.27271V16.2727C8.27296 16.0156 8.37521 15.7691 8.55701 15.5873C8.7388 15.4055 8.9853 15.3033 9.2424 15.303H10.2121V12.3939C10.2124 12.1368 10.3146 11.8903 10.4964 11.7085C10.6782 11.5267 10.9247 11.4245 11.1818 11.4242H14.4545V7.02022Z" fill="black"/>
</svg>
