<svg width="30" height="30" viewBox="0 0 30 30" fill="none" xmlns="http://www.w3.org/2000/svg">
<path fill-rule="evenodd" clip-rule="evenodd" d="M25 19.4444V10.5556C25 9.08213 24.4147 7.66905 23.3728 6.62718C22.3309 5.58532 20.9179 5 19.4444 5H10.5556C9.08213 5 7.66905 5.58532 6.62718 6.62718C5.58532 7.66905 5 9.08213 5 10.5556V19.4444C5 20.9179 5.58532 22.3309 6.62718 23.3728C7.66905 24.4147 9.08213 25 10.5556 25H19.4444C20.9179 25 22.3309 24.4147 23.3728 23.3728C24.4147 22.3309 25 20.9179 25 19.4444ZM19.9091 12.0303H20.8788C21.1359 12.0306 21.3824 12.1328 21.5642 12.3146C21.746 12.4964 21.8482 12.7429 21.8485 13V21.7273L17 21.7273V18.3939C17 17.2894 16.1046 16.3939 15 16.3939C13.8954 16.3939 13 17.2894 13 18.3939V21.7273L8.27271 21.7273V13C8.27296 12.7429 8.37521 12.4964 8.55701 12.3146C8.7388 12.1328 8.9853 12.0306 9.2424 12.0303H10.2121V9.12121C10.2124 8.86411 10.3146 8.61761 10.4964 8.43581C10.6782 8.25401 10.9247 8.15177 11.1818 8.15151H18.9394C19.1965 8.15177 19.443 8.25401 19.6248 8.43581C19.8066 8.61761 19.9088 8.86411 19.9091 9.12121V12.0303ZM15.6747 14.0909H14.4464C14.395 14.0909 14.3457 14.0705 14.3093 14.0341C14.2729 13.9977 14.2525 13.9484 14.2525 13.897V13.1535C14.2525 13.1021 14.2321 13.0528 14.1957 13.0164C14.1593 12.98 14.11 12.9596 14.0585 12.9596H13.3151C13.2637 12.9596 13.2143 12.9392 13.178 12.9028C13.1416 12.8664 13.1212 12.8171 13.1212 12.7657V11.5374C13.1212 11.4859 13.1416 11.4366 13.178 11.4002C13.2143 11.3639 13.2637 11.3434 13.3151 11.3434H14.0585C14.11 11.3434 14.1593 11.323 14.1957 11.2866C14.2321 11.2503 14.2525 11.2009 14.2525 11.1495V10.4061C14.2525 10.3546 14.2729 10.3053 14.3093 10.2689C14.3457 10.2326 14.395 10.2121 14.4464 10.2121H15.6747C15.7261 10.2121 15.7755 10.2326 15.8118 10.2689C15.8482 10.3053 15.8686 10.3546 15.8686 10.4061V11.1495C15.8686 11.2009 15.8891 11.2503 15.9255 11.2866C15.9618 11.323 16.0112 11.3434 16.0626 11.3434H16.806C16.8575 11.3434 16.9068 11.3639 16.9432 11.4002C16.9795 11.4366 17 11.4859 17 11.5374V12.7657C17 12.8171 16.9795 12.8664 16.9432 12.9028C16.9068 12.9392 16.8575 12.9596 16.806 12.9596H16.0626C16.0112 12.9596 15.9618 12.98 15.9255 13.0164C15.8891 13.0528 15.8686 13.1021 15.8686 13.1535V13.897C15.8686 13.9484 15.8482 13.9977 15.8118 14.0341C15.7755 14.0705 15.7261 14.0909 15.6747 14.0909Z" fill="black"/>
</svg>
