<svg width="30" height="30" viewBox="0 0 30 30" fill="none" xmlns="http://www.w3.org/2000/svg">
<path fill-rule="evenodd" clip-rule="evenodd" d="M25 10.5556V19.4444C25 20.9179 24.4147 22.3309 23.3728 23.3728C22.3309 24.4147 20.9179 25 19.4444 25H10.5556C9.08213 25 7.66905 24.4147 6.62718 23.3728C5.58532 22.3309 5 20.9179 5 19.4444V10.5556C5 9.08213 5.58532 7.66905 6.62718 6.62718C7.66905 5.58532 9.08213 5 10.5556 5H19.4444C20.9179 5 22.3309 5.58532 23.3728 6.62718C24.4147 7.66905 25 9.08213 25 10.5556ZM13.2424 14.697C13.2424 13.6928 14.0565 12.8788 15.0606 12.8788C16.0648 12.8788 16.8788 13.6928 16.8788 14.697V19.5455C16.8788 20.5496 16.0648 21.3636 15.0606 21.3636C14.0565 21.3636 13.2424 20.5496 13.2424 19.5455V14.697ZM15.0606 11.0606C16.0648 11.0606 16.8788 10.2466 16.8788 9.24242C16.8788 8.23826 16.0648 7.42424 15.0606 7.42424C14.0565 7.42424 13.2424 8.23826 13.2424 9.24242C13.2424 10.2466 14.0565 11.0606 15.0606 11.0606Z" fill="black"/>
</svg>
