<svg width="30" height="30" viewBox="0 0 30 30" fill="none" xmlns="http://www.w3.org/2000/svg">
<path fill-rule="evenodd" clip-rule="evenodd" d="M25 19.4444V10.5556C25 9.08213 24.4147 7.66905 23.3728 6.62718C22.3309 5.58532 20.9179 5 19.4444 5H10.5556C9.08213 5 7.66905 5.58532 6.62718 6.62718C5.58532 7.66905 5 9.08213 5 10.5556V19.4444C5 20.9179 5.58532 22.3309 6.62718 23.3728C7.66905 24.4147 9.08213 25 10.5556 25H19.4444C20.9179 25 22.3309 24.4147 23.3728 23.3728C24.4147 22.3309 25 20.9179 25 19.4444ZM19.4848 16.6938V18.9506H21V20.4551H8.87879V18.9506H10.3939V16.6938C10.3945 16.0954 10.6342 15.5218 11.0603 15.0987C11.4864 14.6756 12.0641 14.4376 12.6667 14.437H17.2121C17.8147 14.4376 18.3924 14.6756 18.8185 15.0987C19.2446 15.5218 19.4842 16.0954 19.4848 16.6938ZM12.4198 9.00398C12.0868 9.49881 11.9091 10.0806 11.9091 10.6757C11.9099 11.4735 12.2294 12.2384 12.7975 12.8025C13.3657 13.3667 14.136 13.684 14.9394 13.6848C15.5387 13.6848 16.1246 13.5083 16.6229 13.1776C17.1213 12.847 17.5097 12.3771 17.739 11.8272C17.9684 11.2774 18.0284 10.6724 17.9115 10.0887C17.7945 9.50498 17.5059 8.96882 17.0821 8.548C16.6583 8.12717 16.1184 7.84059 15.5306 7.72449C14.9428 7.60838 14.3335 7.66797 13.7797 7.89572C13.226 8.12347 12.7528 8.50914 12.4198 9.00398Z" fill="black"/>
</svg>
