<svg width="30" height="30" viewBox="0 0 30 30" fill="none" xmlns="http://www.w3.org/2000/svg">
<path fill-rule="evenodd" clip-rule="evenodd" d="M25 19.4444V10.5556C25 9.08213 24.4147 7.66905 23.3728 6.62718C22.3309 5.58532 20.9179 5 19.4444 5H10.5556C9.08213 5 7.66905 5.58532 6.62718 6.62718C5.58532 7.66905 5 9.08213 5 10.5556V19.4444C5 20.9179 5.58532 22.3309 6.62718 23.3728C7.66905 24.4147 9.08213 25 10.5556 25H19.4444C20.9179 25 22.3309 24.4147 23.3728 23.3728C24.4147 22.3309 25 20.9179 25 19.4444ZM12.8889 21.6667H17.1111C17.2879 21.6667 17.4575 21.5964 17.5825 21.4714C17.7075 21.3464 17.7778 21.1768 17.7778 21V18.4444C17.7778 18.2676 17.848 18.0981 17.973 17.973C18.0981 17.848 18.2676 17.7778 18.4444 17.7778H21C21.1768 17.7778 21.3464 17.7075 21.4714 17.5825C21.5964 17.4575 21.6667 17.2879 21.6667 17.1111V12.8889C21.6667 12.7121 21.5964 12.5425 21.4714 12.4175C21.3464 12.2925 21.1768 12.2222 21 12.2222H18.4444C18.2676 12.2222 18.0981 12.152 17.973 12.027C17.848 11.9019 17.7778 11.7324 17.7778 11.5556V9C17.7778 8.82319 17.7075 8.65362 17.5825 8.5286C17.4575 8.40357 17.2879 8.33333 17.1111 8.33333H12.8889C12.7121 8.33333 12.5425 8.40357 12.4175 8.5286C12.2925 8.65362 12.2222 8.82319 12.2222 9V11.5556C12.2222 11.7324 12.152 11.9019 12.027 12.027C11.9019 12.152 11.7324 12.2222 11.5556 12.2222H9C8.82319 12.2222 8.65362 12.2925 8.5286 12.4175C8.40357 12.5425 8.33333 12.7121 8.33333 12.8889V17.1111C8.33333 17.2879 8.40357 17.4575 8.5286 17.5825C8.65362 17.7075 8.82319 17.7778 9 17.7778H11.5556C11.7324 17.7778 11.9019 17.848 12.027 17.973C12.152 18.0981 12.2222 18.2676 12.2222 18.4444V21C12.2222 21.1768 12.2925 21.3464 12.4175 21.4714C12.5425 21.5964 12.7121 21.6667 12.8889 21.6667Z" fill="black"/>
</svg>
