<svg width="30" height="30" viewBox="0 0 30 30" fill="none" xmlns="http://www.w3.org/2000/svg">
<path fill-rule="evenodd" clip-rule="evenodd" d="M25 19.4444V10.5556C25 9.08213 24.4147 7.66905 23.3728 6.62718C22.3309 5.58532 20.9179 5 19.4444 5H10.5556C9.08213 5 7.66905 5.58532 6.62718 6.62718C5.58532 7.66905 5 9.08213 5 10.5556V19.4444C5 20.9179 5.58532 22.3309 6.62718 23.3728C7.66905 24.4147 9.08213 25 10.5556 25H19.4444C20.9179 25 22.3309 24.4147 23.3728 23.3728C24.4147 22.3309 25 20.9179 25 19.4444ZM15.3399 13.0908H19.1399C19.4724 13.0908 19.7399 13.3593 19.7399 13.6931V14.8977C19.7399 15.2315 19.4724 15.5001 19.1399 15.5001H18.9399V17.1063C18.9399 17.5505 18.5824 17.9094 18.1399 17.9094H17.7399C17.7399 18.7953 17.0224 19.5156 16.1399 19.5156H12.725L10.14 21.0138C9.75746 21.2347 9.26746 21.1042 9.04746 20.7202L7.04746 17.2418C6.82496 16.8578 6.95746 16.3659 7.33996 16.1451L9.33996 14.9856V13.7985C9.33996 13.2363 9.63496 12.7118 10.1175 12.4232L11.74 11.4444V14.4962C11.74 15.4925 12.5475 16.3032 13.5399 16.3032C14.5324 16.3032 15.3399 15.4925 15.3399 14.4962V13.0908ZM20.8324 8.67373L22.8324 12.1522C23.0524 12.5361 22.9224 13.0255 22.5399 13.2489L20.5399 14.4084V13.6931C20.5399 12.9176 19.9124 12.2877 19.1399 12.2877H14.5399V14.4962C14.5399 15.0508 14.0924 15.5001 13.5399 15.5001C12.9875 15.5001 12.54 15.0508 12.54 14.4962V11.3265C12.54 11.0504 12.68 10.7919 12.915 10.6463L13.7524 10.1218C14.0074 9.96371 14.2999 9.87838 14.5999 9.87838H17.1549L19.7399 8.3801C20.1224 8.15925 20.6124 8.28975 20.8324 8.67373Z" fill="black"/>
</svg>
