<?xml version="1.0" encoding="UTF-8" standalone="no"?>
<svg
   xmlns:dc="http://purl.org/dc/elements/1.1/"
   xmlns:cc="http://creativecommons.org/ns#"
   xmlns:rdf="http://www.w3.org/1999/02/22-rdf-syntax-ns#"
   xmlns:svg="http://www.w3.org/2000/svg"
   xmlns="http://www.w3.org/2000/svg"
   xmlns:sodipodi="http://sodipodi.sourceforge.net/DTD/sodipodi-0.dtd"
   xmlns:inkscape="http://www.inkscape.org/namespaces/inkscape"
   inkscape:version="1.0rc1 (09960d6f05, 2020-04-09)"
   inkscape:export-ydpi="9"
   inkscape:export-xdpi="9"
   inkscape:export-filename="C:\Users\Maciej\Desktop\social_facility__outreach.png"
   sodipodi:docname="social_facility__outreach.svg"
   id="svg4"
   viewBox="0 0 15 15"
   y="0"
   x="0"
   version="1.1">
  <metadata
     id="metadata10">
    <rdf:RDF>
      <cc:Work
         rdf:about="">
        <dc:format>image/svg+xml</dc:format>
        <dc:type
           rdf:resource="http://purl.org/dc/dcmitype/StillImage" />
        <dc:title></dc:title>
      </cc:Work>
    </rdf:RDF>
  </metadata>
  <defs
     id="defs8" />
  <sodipodi:namedview
     inkscape:current-layer="svg4"
     inkscape:window-maximized="0"
     inkscape:window-y="81"
     inkscape:window-x="1391"
     inkscape:cy="2.7720212"
     inkscape:cx="2.822695"
     inkscape:zoom="20.837921"
     showgrid="false"
     id="namedview6"
     inkscape:window-height="1129"
     inkscape:window-width="2018"
     inkscape:pageshadow="2"
     inkscape:pageopacity="0"
     guidetolerance="10"
     gridtolerance="10"
     objecttolerance="10"
     borderopacity="1"
     bordercolor="#666666"
     pagecolor="#ffffff" />
  <path
     inkscape:export-ydpi="235.78947"
     inkscape:export-xdpi="235.78947"
     style="fill:#aa0000;stroke:#ffffff;stroke-opacity:1;stroke-linecap:round;paint-order:stroke fill markers;stroke-linejoin:round;stroke-width:1.25;stroke-miterlimit:4;stroke-dasharray:none"
     id="path2"
     d="M0 8.5C2 9 4.5 10 4.5 10C4.5 10 5.5 9.5 6 9.5L8 9.5L11 9C11 9 11.5 9.5 11 10C10.5 10.5 8.5 11 8 11C7.5 11 8.5 11.5 8.5 11.5L10 11.5C10 11.5 12 11.5 13 11C14 10.5 15 10 15 10.5C13 12.5 12 13 12 13C12 13 10 13.5 8 13.5C7.5 13.5 6 12.5 5.5 12.5C5 12.5 0 13 0 12.5L0 8.5zM12.5 0.5C14 0.5 14 2 14 2.5C14 4.5 11 7.5 10.5 7.5C10 7.5 7 4.5 7 2.5C7 2 7 0.5 8.5 0.5C10 0.5 10.5 2 10.5 2C10.5 2 11 0.5 12.5 0.5z" />
</svg>
